<svg xmlns="http://www.w3.org/2000/svg" xmlnsXlink="http://www.w3.org/1999/xlink" width="72" height="24" viewBox="0 0 72 24">
  <g id="Logo_Efecty" data-name="Logo | Efecty" transform="translate(0 0)">
    <g id="Group_12648" data-name="Group 12648" transform="translate(0 0)" clip-path="url(#clip-path)">
      <path id="Path_3265" data-name="Path 3265" d="M41.763,11.717h0c.1-1.214.646-2.227,1.871-2.238,1.181,0,1.783,1.047,1.794,2.238Zm-13.893-.022h0c.142-1.2.591-2.194,1.849-2.215,1.215-.022,1.794,1,1.849,2.238ZM33.3,16.47h0l-.547-1.313a11.786,11.786,0,0,1-1.5.523c-1.74.3-3.315-.523-3.347-2.539h5.656c0-2.015-.35-4.33-2.56-5.032a3.94,3.94,0,0,0-3.107.3c-3.063,1.87-2.91,8.984,2.462,8.917A4.967,4.967,0,0,0,33.3,16.47m15.163-3.6h0c.12,5.288,5.765,5,7.286,3.6a6.765,6.765,0,0,0-.569-1.347c-1.039.434-2.057.924-3.314.29-1.958-.98-1.816-4.687.164-5.611a3.408,3.408,0,0,1,2.626.022c.285.134.492.279.722.379V8.488A5.032,5.032,0,0,0,51.9,8.043a4.669,4.669,0,0,0-3.446,4.832M35.4,8.143h0l.021-1.981a2.738,2.738,0,0,1,1.455-2.193,3.731,3.731,0,0,1,3.031.1l-.361,1.57c-2.221-.5-2.21-.078-2.21,2.5H39.75l-.623,1.57-1.794.011v7.393a9.361,9.361,0,0,1-1.936-.022V9.735l-.974-.022-.6-1.559ZM57.713,9.768l.022,5.355a3.012,3.012,0,0,0,.207,1.013c.711,1.581,3.173,1.436,4.605.49l-.634-1.347a2.446,2.446,0,0,1-1.7.367c-.591-.178-.548-.89-.548-1.592V9.724l3.971.011,3.195,7.415a5.381,5.381,0,0,1-.8,1.814c-1.105,1.581-2.133.913-3.02.713l-.437,1.6a3.981,3.981,0,0,0,4.43-.679,11.483,11.483,0,0,0,1.925-3.841L72,8.143H69.966L67.81,14.767c-.218-.245-1.881-4.487-2.187-5.21a2.132,2.132,0,0,0-2.3-1.415c-1.2-.011-2.417,0-3.654,0V5.483a14.569,14.569,0,0,0-1.958.634V8.11l-1.575.022.011,1.592ZM17.487,1.554h0C21.549,3,23.9,7.133,22.991,12A13.94,13.94,0,0,1,11.235,22.939c-.443-.014-.45-.269-.464-.646.021-.785.05-1.576.071-2.361.007-.116-.036-.153-.086-.167A8.552,8.552,0,0,1,9.065,19.4a10.361,10.361,0,0,1-1.813-.988c-.279-.138-.243-.792-.236-1.046.05-.465.385-1.547.928-1.6.65-.036.956.312,1.6.632a4.771,4.771,0,0,0,3.876.305,1.01,1.01,0,0,0,.436-1.417c-.457-.973-2.648-1.773-3.641-2.259A5.064,5.064,0,0,1,6.93,7.417,4.5,4.5,0,0,1,10.706,3.93V3.051A12.562,12.562,0,0,0,5.367,6.465,11.793,11.793,0,0,0,1.827,14.8c.171,4.25,2.341,6.131,4.611,7.54C2.54,20.811.313,16.757,1.206,12A13.89,13.89,0,0,1,13.412,1.024c.228.138.243.16.364.472-.05.734-.093,1.467-.143,2.2A6.5,6.5,0,0,1,16.7,5c.028,1.685-1.214,2.39-1.684,2.136a16.949,16.949,0,0,0-2.263-.7,2.356,2.356,0,0,0-1.421.167A.906.906,0,0,0,10.778,7.9,2.606,2.606,0,0,0,11.8,8.927c1.193.654,2.384,1.315,3.576,1.969a5.476,5.476,0,0,1,2.234,2.273,4.912,4.912,0,0,1,.222,2.789,4.366,4.366,0,0,1-.956,1.86,4.289,4.289,0,0,1-1.192.98,6.027,6.027,0,0,1-1.842.719c-.022.392-.036.777-.057,1.17a.2.2,0,0,0,.157,0,13.385,13.385,0,0,0,3.69-2.07,12.858,12.858,0,0,0,3.633-4.576,11.289,11.289,0,0,0,1.071-3.465c.406-3.7-.921-7.191-4.847-9.022M14.354,0h0c6.56,0,10.872,5.368,9.629,12S16.409,24,9.85,24-1.029,18.632.214,12,7.787,0,14.354,0m25.44,13.008h0c.208,3.329,2.746,4.9,5.864,4.152a12.012,12.012,0,0,0,1.531-.613l-.547-1.4c-.788.245-1.806.935-3.228.434a2.5,2.5,0,0,1-1.63-2.427l5.667-.011c0-2.627-.777-5.2-3.753-5.221-2.91-.033-4.059,2.461-3.906,5.088" transform="translate(0 0)" fill-rule="evenodd"/>
    </g>
  </g>
</svg>
