<svg xmlns="http://www.w3.org/2000/svg" xmlns:xlink="http://www.w3.org/1999/xlink" width="72" height="24" viewBox="0 0 72 24">
  <defs>
    <clipPath id="clip-path">
      <rect id="Rectangle_2710" data-name="Rectangle 2710" width="72" height="24" fill="none"/>
    </clipPath>
  </defs>
  <g id="Logo_PSE" data-name="Logo | PSE" transform="translate(0 0)">
    <g id="Group_12652" data-name="Group 12652" transform="translate(0 0)" clip-path="url(#clip-path)">
      <path id="Path_3281" data-name="Path 3281" d="M8.408,3.022l1.369.008.233-1.665A.568.568,0,0,0,9.64.709l-1.186,0V.981H9.575a.3.3,0,0,1,.168.345l-.053.369L8.671,1.66c-.278,0-.549.322-.58.361l-.015.027a.74.74,0,0,0-.053.6.726.726,0,0,0,.385.373m-.1-.838c.088-.1.255-.248.355-.248l.984.035-.111.784H8.484a.437.437,0,0,1-.21-.213.453.453,0,0,1,.038-.357" transform="translate(22.454 2.031)"/>
      <path id="Path_3282" data-name="Path 3282" d="M8.726,3.014l.191.043,1.106,0V2.785H8.963L8.906,2.77A1.794,1.794,0,0,1,8.9,1.594a.923.923,0,0,1,.4-.613H10.4V.705H9.226L9.2.717a1.169,1.169,0,0,0-.561.8A1.967,1.967,0,0,0,8.7,2.96Z" transform="translate(23.981 2.031)"/>
      <path id="Path_3283" data-name="Path 3283" d="M9.285,3.581l.294-1.688a.932.932,0,0,1,.282-.3,1.639,1.639,0,0,1,.869.082l.019.027.031.016a.2.2,0,0,1,.088.19L10.6,3.484l.271.047.263-1.6a.472.472,0,0,0-.21-.45c-.206-.229-.847-.194-1.114-.167l-.046.012a.419.419,0,0,0-.1.058L9.822.542,9.552.492,9.014,3.531Z" transform="translate(25.36 1.417)"/>
      <path id="Path_3284" data-name="Path 3284" d="M20.394,1.6H14.438l-.08.008a3.436,3.436,0,0,0-2.723,3.326A2.462,2.462,0,0,0,13.649,7.6h4.241c.187.019,1.346.225,1.266,2.282a2.624,2.624,0,0,1-2.063,2.573H10.518a.382.382,0,0,0,0,.765H17.13l.061,0a3.385,3.385,0,0,0,2.715-3.307C20.017,7,17.942,6.84,17.923,6.84H13.736A1.751,1.751,0,0,1,12.39,4.966V4.939a2.683,2.683,0,0,1,2.094-2.577h5.911a.382.382,0,0,0,0-.765" transform="translate(28.539 4.601)"/>
      <path id="Path_3285" data-name="Path 3285" d="M21.519,1.653a.324.324,0,0,0-.107-.016H17.027c-1.987,0-2.883,2.4-2.921,2.5l-.015.05a50.773,50.773,0,0,0-1.079,6.772c.034,1.529,1.563,2.1,2.368,2.185l.042,0h6.1a.382.382,0,0,0,0-.765H15.445c-.191-.027-1.655-.26-1.682-1.444a20.429,20.429,0,0,1,.378-3.093l8.489-.074A.378.378,0,0,0,23,7.458a28.813,28.813,0,0,0,.4-3.66c0-1.58-1.8-2.127-1.876-2.146m.789,5.36-8.031.07c.248-1.335.5-2.507.541-2.7.084-.217.82-1.979,2.208-1.979h4.328c.233.082,1.289.5,1.289,1.4a25.116,25.116,0,0,1-.336,3.213" transform="translate(36.605 4.716)"/>
      <path id="Path_3286" data-name="Path 3286" d="M18.692,3.931c.229-1.568-1.716-2.317-2.082-2.309-1.571.008-3.951.012-4.2,0a.457.457,0,0,0-.1,0,4.425,4.425,0,0,0-2.719,2.6H9.6a6.447,6.447,0,0,0-.137.636c-.069.369-.164.9-.278,1.529-.229,1.261-.534,2.946-.835,4.626l-1.2,6.73a.383.383,0,0,0,.3.446l.069,0a.373.373,0,0,0,.366-.314c.255-1.42.671-3.749,1.087-6.074a3.529,3.529,0,0,0,2.258,1.4h.046l3.859-.113a.273.273,0,0,0,.1-.016,3.9,3.9,0,0,0,2.4-2.561l.011-.043,1.045-6.5,0-.043m-.747-.058L16.9,10.331a3.185,3.185,0,0,1-1.842,2.006l-3.779.109a2.994,2.994,0,0,1-2.116-1.727c.557-3.1,1.068-5.938,1.133-6.241a3.827,3.827,0,0,1,2.116-2.1c.145.008.343.012.614.012.4,0,.93,0,1.461,0,.881,0,1.758,0,2.033,0,.446,0,1.529.768,1.422,1.486" transform="translate(20.094 4.673)"/>
      <path id="Path_3287" data-name="Path 3287" d="M6.41,3.064A1.065,1.065,0,1,0,5.361,2,1.057,1.057,0,0,0,6.41,3.064" transform="translate(15.083 2.688)"/>
      <path id="Path_3288" data-name="Path 3288" d="M5.788,2.131A1.058,1.058,0,0,0,6.836,1.063a1.049,1.049,0,1,0-2.1,0A1.058,1.058,0,0,0,5.788,2.131" transform="translate(13.333 0)"/>
      <path id="Path_3289" data-name="Path 3289" d="M5.163,3.064A1.065,1.065,0,1,0,4.114,2,1.058,1.058,0,0,0,5.163,3.064" transform="translate(11.574 2.688)"/>
      <path id="Path_3290" data-name="Path 3290" d="M6.378,4.673A1.065,1.065,0,1,0,7.426,5.74,1.058,1.058,0,0,0,6.378,4.673" transform="translate(14.993 13.463)"/>
      <path id="Path_3291" data-name="Path 3291" d="M4.44,3.844a.881.881,0,1,0,.866.881.875.875,0,0,0-.866-.881" transform="translate(10.055 11.074)"/>
      <path id="Path_3292" data-name="Path 3292" d="M5.046,4.721a.881.881,0,1,0,.866.881.875.875,0,0,0-.866-.881" transform="translate(11.76 13.601)"/>
      <path id="Path_3293" data-name="Path 3293" d="M4.424,5.682a.881.881,0,1,0,.866.881.875.875,0,0,0-.866-.881" transform="translate(10.01 16.37)"/>
      <path id="Path_3294" data-name="Path 3294" d="M3.692,4.772a.683.683,0,1,0,.671.683.678.678,0,0,0-.671-.683" transform="translate(8.499 13.748)"/>
      <path id="Path_3295" data-name="Path 3295" d="M1.528,2.931a.683.683,0,1,0,.671.683.678.678,0,0,0-.671-.683" transform="translate(2.411 8.444)"/>
      <path id="Path_3296" data-name="Path 3296" d="M1.843,1.993a.683.683,0,1,0,.671.683.678.678,0,0,0-.671-.683" transform="translate(3.297 5.742)"/>
      <path id="Path_3297" data-name="Path 3297" d="M2.439,2.4a.683.683,0,1,0-.671-.683.678.678,0,0,0,.671.683" transform="translate(4.974 2.973)"/>
      <path id="Path_3298" data-name="Path 3298" d="M3.044,1.485A.678.678,0,0,0,3.715.8.671.671,0,1,0,2.373.8a.678.678,0,0,0,.671.683" transform="translate(6.676 0.343)"/>
      <path id="Path_3299" data-name="Path 3299" d="M3.061,5.733a.683.683,0,1,0,.671.683.678.678,0,0,0-.671-.683" transform="translate(6.724 16.517)"/>
      <path id="Path_3300" data-name="Path 3300" d="M2.456,4.772a.683.683,0,1,0,.671.683.678.678,0,0,0-.671-.683" transform="translate(5.022 13.748)"/>
      <path id="Path_3301" data-name="Path 3301" d="M1.834,3.9a.683.683,0,1,0,.671.683A.678.678,0,0,0,1.834,3.9" transform="translate(3.272 11.221)"/>
      <path id="Path_3302" data-name="Path 3302" d="M1.263,4.857a.353.353,0,1,0,.347.353.351.351,0,0,0-.347-.353" transform="translate(2.577 13.993)"/>
      <path id="Path_3303" data-name="Path 3303" d="M.7,3.98a.353.353,0,0,0,0,.706.353.353,0,0,0,0-.706" transform="translate(0.982 11.466)"/>
      <path id="Path_3304" data-name="Path 3304" d="M.347,3a.353.353,0,0,0,0,.706A.353.353,0,0,0,.347,3" transform="translate(0 8.643)"/>
      <path id="Path_3305" data-name="Path 3305" d="M.671,2.786a.353.353,0,0,0,0-.706.353.353,0,0,0,0,.706" transform="translate(0.912 5.992)"/>
      <path id="Path_3306" data-name="Path 3306" d="M1.284,1.831a.353.353,0,1,0-.347-.353.351.351,0,0,0,.347.353" transform="translate(2.636 3.241)"/>
      <path id="Path_3307" data-name="Path 3307" d="M3.2,3.844a.881.881,0,1,0,.866.881A.875.875,0,0,0,3.2,3.844" transform="translate(6.558 11.074)"/>
      <path id="Path_3308" data-name="Path 3308" d="M2.558,2.882a.881.881,0,1,0,.866.881.875.875,0,0,0-.866-.881" transform="translate(4.76 8.303)"/>
      <path id="Path_3309" data-name="Path 3309" d="M3.188,3.7a.881.881,0,1,0-.866-.881.875.875,0,0,0,.866.881" transform="translate(6.533 5.595)"/>
      <path id="Path_3310" data-name="Path 3310" d="M3.819,2.743a.881.881,0,1,0-.866-.881.875.875,0,0,0,.866.881" transform="translate(8.308 2.826)"/>
      <path id="Path_3311" data-name="Path 3311" d="M4.415,1.814A.875.875,0,0,0,5.28.933a.866.866,0,1,0-1.731,0,.875.875,0,0,0,.866.881" transform="translate(9.985 0.15)"/>
      <path id="Path_3312" data-name="Path 3312" d="M5.787,5.635A1.065,1.065,0,1,0,6.835,6.7,1.057,1.057,0,0,0,5.787,5.635" transform="translate(13.33 16.234)"/>
      <path id="Path_3313" data-name="Path 3313" d="M19.969,6.886V6.234H14.375l-2.292-3.6H7.267a1.043,1.043,0,0,0-2.04.326A1.058,1.058,0,0,0,6.275,4.026a1.045,1.045,0,0,0,.991-.741h4.485l1.872,2.95H4.914a1.045,1.045,0,0,0-.976-.691,1.065,1.065,0,0,0,0,2.131,1.043,1.043,0,0,0,1.007-.788H15.9l-1.823,3.128h-2.1a1.068,1.068,0,1,0,0,.652h2.36l2.2-3.78Z" transform="translate(8.128 5.459)"/>
    </g>
  </g>
</svg>
