<?xml version="1.0" standalone="no"?>
<!DOCTYPE svg PUBLIC "-//W3C//DTD SVG 20010904//EN"
 "http://www.w3.org/TR/2001/REC-SVG-20010904/DTD/svg10.dtd">
<svg version="1.0" xmlns="http://www.w3.org/2000/svg"
 width="512.000000pt" height="512.000000pt" viewBox="0 0 512.000000 512.000000"
 preserveAspectRatio="xMidYMid meet">
<metadata>
Created by potrace 1.14, written by Peter Selinger 2001-2017
</metadata>
<g transform="translate(0.000000,512.000000) scale(0.100000,-0.100000)"
fill="#000000" stroke="none">
<path d="M700 5113 c-326 -54 -580 -281 -672 -600 l-23 -78 0 -1865 c0 -1026
3 -1882 8 -1904 49 -249 216 -467 442 -579 66 -33 156 -64 215 -76 14 -2 858
-6 1875 -7 1813 -3 1852 -3 1933 16 165 40 299 115 416 235 51 53 129 164 147
211 5 16 16 42 23 59 20 44 36 103 46 165 5 32 8 841 7 1905 l-2 1850 -23 74
c-69 222 -209 397 -402 503 -36 20 -98 45 -130 53 -3 1 -17 6 -31 12 -70 30
-187 32 -1979 31 -1004 0 -1836 -3 -1850 -5z"/>
</g>
</svg>
