<?xml version="1.0" standalone="no"?>
<!DOCTYPE svg PUBLIC "-//W3C//DTD SVG 20010904//EN"
 "http://www.w3.org/TR/2001/REC-SVG-20010904/DTD/svg10.dtd">
<svg version="1.0" xmlns="http://www.w3.org/2000/svg"
 width="3134.000000pt" height="3134.000000pt" viewBox="0 0 3134.000000 3134.000000"
 preserveAspectRatio="xMidYMid meet">
<metadata>
Created by potrace 1.14, written by Peter Selinger 2001-2017
</metadata>
<g transform="translate(0.000000,3134.000000) scale(0.100000,-0.100000)"
fill="#000000" stroke="none">
<path d="M15595 23971 c-27 -15 -79 -46 -115 -68 -171 -108 -281 -177 -343
-217 -115 -74 -456 -320 -573 -414 -62 -50 -119 -94 -127 -98 -60 -35 -486
-417 -722 -647 l-169 -166 -36 21 c-124 74 -497 266 -675 348 -391 180 -812
338 -1280 479 -185 55 -241 71 -346 95 -57 13 -108 25 -114 26 -43 10 -68 -11
-234 -194 -393 -436 -777 -957 -1074 -1457 l-57 -96 -83 19 c-505 114 -998
184 -1492 213 -55 3 -134 8 -175 10 -41 3 -153 6 -248 6 -151 2 -174 0 -192
-16 -29 -27 -110 -173 -270 -490 -171 -339 -288 -606 -411 -937 -79 -212 -229
-668 -229 -696 0 -6 -7 -17 -15 -26 -12 -12 -41 -15 -137 -15 -224 1 -688 -30
-928 -62 -533 -70 -1223 -207 -1268 -252 -15 -16 -45 -122 -106 -382 -75 -320
-135 -652 -175 -965 -18 -144 -27 -230 -51 -500 -24 -269 -33 -713 -21 -1010
11 -279 15 -340 42 -620 114 -1205 494 -2462 1069 -3530 382 -710 935 -1473
1461 -2015 53 -55 123 -129 155 -163 74 -80 409 -389 611 -564 85 -73 396
-316 526 -412 356 -258 743 -502 1134 -710 163 -88 517 -258 617 -297 27 -11
68 -28 90 -38 23 -11 82 -35 131 -55 50 -20 99 -41 110 -46 17 -8 113 -43 395
-145 81 -29 318 -103 465 -145 61 -17 139 -39 175 -49 36 -11 88 -24 115 -31
28 -6 75 -18 105 -25 30 -8 78 -19 105 -25 28 -5 93 -19 145 -30 339 -73 637
-119 1035 -159 501 -51 1129 -59 1600 -20 209 17 348 30 420 39 39 5 111 14
160 20 85 11 121 16 265 40 131 22 187 32 225 40 22 5 67 14 100 20 66 13 124
25 170 36 17 4 39 9 50 11 11 1 74 17 140 33 l121 31 114 -30 c108 -27 223
-54 315 -71 437 -84 435 -84 725 -120 529 -66 1025 -87 1570 -67 124 5 236 11
250 13 14 2 84 8 155 14 182 14 342 32 540 60 33 5 94 13 135 19 91 13 167 26
240 41 30 6 78 15 105 20 28 6 93 19 145 30 52 12 115 25 140 30 58 11 345 84
433 110 37 11 100 29 140 41 310 89 629 203 1017 364 210 87 660 302 805 385
22 13 85 48 140 79 819 462 1636 1109 2266 1796 127 138 151 165 241 270 885
1029 1527 2219 1903 3530 181 628 291 1252 347 1970 17 209 16 1067 -1 1265
-16 192 -40 438 -52 528 -23 184 -29 223 -39 288 -63 403 -206 1037 -246 1091
-17 23 -80 48 -144 57 -8 1 -26 5 -40 9 -29 7 -130 30 -227 52 -86 19 -141 30
-223 45 -36 6 -85 16 -110 21 -50 10 -186 31 -355 54 -60 8 -139 20 -175 25
-36 5 -126 14 -200 20 -74 6 -173 15 -220 20 -99 11 -389 24 -540 24 l-104 1
-47 155 c-112 370 -215 654 -371 1020 -129 303 -429 892 -496 976 l-24 29
-146 -2 c-306 -5 -739 -33 -982 -64 -257 -32 -603 -87 -747 -119 -51 -11 -132
-29 -180 -39 -49 -10 -95 -22 -103 -25 -11 -4 -31 22 -75 97 -91 155 -292 461
-438 665 -105 147 -401 530 -426 552 -3 3 -33 37 -65 75 -63 74 -144 162 -259
283 -57 59 -75 72 -101 72 -29 0 -277 -58 -336 -79 -14 -5 -61 -19 -105 -31
-91 -26 -260 -78 -290 -90 -11 -4 -58 -20 -105 -35 -108 -34 -385 -138 -560
-208 -317 -128 -848 -386 -1019 -494 l-54 -35 -171 169 c-351 345 -617 575
-1001 864 -248 187 -736 508 -896 590 -49 25 -64 24 -124 -10z m285 -279 c573
-358 1103 -776 1623 -1281 70 -68 126 -129 124 -135 -3 -10 -11 -15 -113 -75
-234 -137 -659 -434 -904 -631 -53 -42 -104 -82 -115 -87 -13 -7 -49 -8 -105
-2 -47 4 -150 14 -230 21 -195 18 -809 17 -1005 -1 -82 -7 -186 -16 -230 -20
l-79 -7 -98 78 c-291 232 -646 479 -940 655 -54 32 -98 63 -98 69 0 12 280
291 390 389 36 32 83 74 105 94 51 46 170 145 366 304 46 38 93 76 104 85 175
144 769 548 960 654 29 16 31 15 85 -14 30 -17 102 -60 160 -96z m-4705 -552
c11 -5 31 -11 45 -13 37 -7 205 -53 280 -76 36 -12 65 -20 65 -20 0 5 130 -37
320 -103 490 -170 959 -374 1378 -600 l168 -90 -23 -27 c-344 -380 -601 -707
-883 -1121 -43 -63 -230 -361 -284 -452 l-17 -27 -114 64 c-63 35 -167 90
-230 122 -63 31 -118 61 -121 66 -4 5 -12 6 -18 3 -6 -4 -14 0 -17 9 -4 9 -12
14 -20 11 -7 -3 -18 2 -24 10 -7 8 -17 14 -22 14 -6 0 -45 16 -87 36 -367 173
-849 359 -1231 474 -41 12 -93 28 -115 35 -105 34 -308 85 -316 80 -26 -17 2
37 104 200 310 494 656 948 1067 1396 26 28 45 30 95 9z m9177 -117 c100 -111
261 -304 393 -468 103 -128 299 -399 420 -580 202 -303 296 -466 255 -440 -6
3 -25 2 -43 -4 -39 -13 -109 -32 -197 -56 -36 -10 -130 -38 -210 -63 -80 -25
-154 -47 -165 -49 -11 -2 -24 -8 -29 -13 -6 -6 -18 -10 -28 -10 -10 0 -26 -4
-36 -10 -9 -5 -82 -32 -162 -59 -136 -46 -340 -124 -447 -172 -27 -11 -57 -25
-68 -29 -11 -5 -46 -20 -78 -34 -31 -14 -85 -38 -120 -52 -152 -64 -667 -328
-714 -366 -11 -9 -14 -6 -38 34 -297 501 -645 977 -1035 1417 -74 84 -135 157
-135 163 0 13 125 82 390 216 200 101 716 332 741 332 3 0 20 7 37 15 34 15
158 60 417 149 227 78 346 115 549 167 63 16 116 31 119 34 3 3 20 5 38 5 28
0 45 -14 146 -127z m-6527 -1021 c227 -142 391 -254 617 -424 152 -114 175
-134 165 -144 -2 -3 -54 -14 -116 -24 -61 -11 -123 -22 -138 -25 -67 -15 -359
-87 -373 -92 -8 -4 -17 -7 -20 -7 -29 -7 -109 -30 -125 -36 -11 -4 -60 -20
-110 -35 -49 -15 -101 -32 -115 -38 -14 -5 -34 -12 -45 -14 -11 -2 -24 -8 -29
-13 -6 -6 -15 -10 -22 -10 -6 0 -29 -8 -50 -17 -22 -9 -45 -18 -52 -19 -8 -1
-21 -6 -30 -10 -9 -4 -19 -8 -22 -9 -3 -1 -12 -5 -20 -8 -19 -8 -73 -30 -80
-32 -36 -12 -237 -103 -365 -165 -136 -67 -413 -218 -441 -241 -22 -18 -17 -7
33 82 72 128 421 641 463 679 3 3 25 32 50 65 119 162 410 510 542 648 43 46
13 58 283 -111z m3971 106 c327 -343 793 -956 1050 -1380 53 -88 63 -118 27
-86 -18 16 -34 26 -176 105 -145 81 -536 270 -617 298 -3 1 -18 7 -35 14 -16
7 -42 15 -57 18 -16 3 -28 9 -28 14 0 5 -8 9 -18 9 -10 0 -26 6 -37 13 -21 14
-105 42 -117 39 -5 -1 -8 3 -8 10 0 6 -3 9 -6 6 -3 -3 -28 3 -57 13 -28 10
-60 19 -69 19 -10 0 -18 4 -18 8 0 5 -26 15 -57 22 -32 7 -62 17 -67 22 -6 4
-22 8 -36 8 -14 0 -30 4 -36 9 -5 6 -20 12 -34 15 -14 3 -97 23 -184 46 -88
22 -183 44 -210 49 -115 21 -281 54 -286 58 -2 2 9 15 25 27 17 13 40 32 52
42 121 100 724 516 793 547 8 4 46 27 85 52 38 25 72 45 75 45 3 0 24 -19 46
-42z m-9636 -458 c213 -13 384 -29 610 -59 198 -27 459 -70 600 -100 25 -5 70
-14 100 -20 30 -6 75 -15 100 -21 25 -5 48 -9 53 -10 18 -1 2 -39 -64 -161
-294 -541 -554 -1171 -740 -1797 -16 -56 -25 -72 -36 -68 -20 8 -165 42 -233
55 -30 6 -100 20 -155 30 -179 35 -516 85 -655 98 -25 2 -133 12 -240 23 -107
11 -301 22 -430 25 -129 3 -245 8 -258 11 -28 6 -30 -4 56 259 186 576 381
1032 685 1604 l82 154 185 -7 c102 -3 255 -11 340 -16z m15608 -107 c295 -538
577 -1207 731 -1738 22 -76 38 -141 36 -145 -2 -4 -113 -10 -245 -14 -215 -6
-598 -37 -830 -66 -47 -6 -114 -15 -150 -20 -63 -8 -315 -51 -415 -70 -194
-39 -296 -61 -320 -70 -16 -6 -32 -7 -36 -3 -4 4 -32 89 -63 188 -104 339
-207 618 -351 955 -69 162 -291 615 -370 755 -63 112 -63 126 1 136 21 3 75
14 119 23 44 9 105 21 135 27 30 6 73 14 95 19 124 26 497 80 685 99 214 23
320 31 395 32 44 1 107 5 140 9 33 4 130 8 216 9 l157 1 70 -127z m-2170 -279
c310 -575 534 -1103 717 -1689 26 -82 50 -160 52 -172 6 -26 -11 -35 -102 -57
-117 -28 -190 -47 -210 -56 -11 -4 -40 -14 -65 -21 -25 -7 -47 -13 -50 -14 -3
-1 -18 -5 -35 -9 -16 -4 -39 -11 -50 -15 -11 -5 -81 -28 -155 -51 -74 -24
-139 -47 -145 -52 -5 -4 -18 -8 -30 -8 -12 0 -26 -5 -33 -12 -7 -7 -12 -9 -12
-5 0 4 -9 3 -21 -3 -11 -6 -28 -13 -38 -15 -9 -2 -35 -11 -57 -21 -21 -9 -45
-18 -52 -20 -8 -1 -30 -10 -50 -20 -20 -10 -44 -18 -52 -19 -16 -2 -208 -82
-225 -95 -5 -3 -39 -17 -75 -30 -36 -12 -71 -27 -78 -33 -7 -5 -14 -8 -16 -6
-1 2 -56 76 -121 164 -366 492 -829 948 -1340 1320 -141 102 -155 114 -155
131 0 7 39 35 88 64 100 58 607 311 632 315 3 0 19 8 35 17 66 35 475 201 625
253 41 14 84 30 95 35 11 5 65 23 120 41 55 17 109 35 120 40 11 4 36 12 55
18 19 6 78 24 130 40 52 16 120 35 150 42 30 7 59 16 65 21 5 4 21 8 36 8 15
0 31 5 34 10 3 6 18 10 33 10 15 0 45 7 67 14 22 8 41 13 41 13 1 -1 33 -61
72 -133z m-11730 117 c9 -5 46 -16 82 -24 36 -9 128 -34 205 -57 77 -23 149
-44 160 -47 11 -2 29 -8 40 -12 11 -5 70 -24 130 -44 285 -92 614 -218 840
-321 28 -13 79 -36 115 -51 134 -59 650 -322 689 -351 12 -10 -14 -53 -46 -74
-88 -59 -339 -252 -473 -364 -330 -276 -784 -765 -1025 -1104 -33 -46 -62 -85
-66 -88 -7 -4 -42 10 -149 59 -57 26 -227 96 -245 101 -5 2 -23 8 -40 15 -16
7 -73 28 -125 47 -52 20 -117 44 -145 54 -27 10 -68 24 -90 31 -22 6 -49 16
-60 21 -12 5 -28 10 -38 12 -9 1 -20 5 -23 9 -4 4 -13 7 -20 7 -7 0 -25 5 -41
12 -15 6 -32 12 -38 14 -5 1 -50 14 -100 29 -111 34 -324 92 -388 106 -27 6
-51 17 -53 24 -6 15 175 562 251 756 67 171 174 426 225 534 121 256 157 328
236 476 48 90 98 181 111 202 24 38 47 46 81 28z m6337 -50 c55 -6 127 -13
160 -16 33 -3 83 -9 110 -15 28 -5 68 -12 90 -15 157 -20 368 -59 505 -95 51
-13 109 -28 155 -39 448 -105 1003 -333 1480 -606 489 -280 849 -552 1249
-945 940 -923 1550 -2106 1761 -3413 106 -658 97 -1387 -26 -2057 -160 -875
-496 -1670 -1030 -2437 -66 -95 -246 -331 -269 -353 -3 -3 -32 -36 -65 -75
-519 -611 -1176 -1128 -1895 -1492 -113 -57 -212 -109 -220 -116 -8 -7 -15
-10 -15 -7 0 2 -18 -3 -40 -13 -22 -9 -66 -27 -97 -41 -32 -13 -58 -21 -58
-19 0 3 -7 -1 -16 -8 -9 -7 -23 -14 -32 -15 -8 -2 -18 -7 -21 -12 -3 -5 -14
-8 -23 -6 -10 1 -18 -2 -18 -6 0 -8 -55 -28 -99 -36 -8 -1 -17 -6 -20 -11 -3
-4 -17 -10 -31 -12 -14 -1 -27 -6 -30 -10 -4 -7 -60 -24 -68 -22 -1 1 -15 -5
-31 -13 -16 -9 -31 -13 -34 -10 -3 3 -16 -2 -29 -10 -14 -9 -28 -13 -31 -10
-4 4 -13 1 -21 -5 -8 -7 -30 -14 -48 -16 -18 -3 -34 -9 -36 -14 -2 -6 -9 -8
-16 -5 -6 2 -29 -2 -49 -11 -21 -9 -42 -13 -47 -10 -6 4 -10 2 -10 -3 0 -8
-74 -27 -92 -23 -5 0 -8 -4 -8 -10 0 -5 -4 -8 -8 -5 -5 3 -28 0 -53 -5 -24 -6
-80 -19 -124 -29 -73 -17 -119 -26 -245 -51 -25 -4 -79 -13 -120 -18 -41 -6
-91 -13 -110 -16 -36 -6 -97 -14 -275 -35 -252 -28 -836 -34 -1085 -10 -369
36 -749 99 -970 160 -19 5 -89 23 -155 41 -66 17 -156 43 -200 57 -44 15 -88
27 -97 28 -10 1 -24 7 -32 13 -8 7 -19 10 -24 7 -6 -3 -15 1 -22 9 -7 8 -16
12 -21 9 -5 -2 -20 3 -34 12 -14 9 -28 14 -32 10 -3 -3 -12 -1 -19 4 -6 6 -20
13 -30 15 -62 13 -506 208 -639 281 -22 11 -89 47 -150 79 -449 238 -940 599
-1338 985 -882 853 -1490 1964 -1736 3167 -139 679 -163 1305 -75 2003 117
939 467 1865 1003 2655 97 143 344 473 370 495 3 3 31 34 61 70 197 235 545
570 815 786 203 163 552 400 770 524 128 73 471 249 530 272 22 9 65 27 95 41
68 31 337 138 353 141 7 1 21 7 32 13 11 5 25 8 32 6 6 -2 14 1 18 6 3 6 17
11 30 11 13 0 27 5 30 10 3 6 16 10 29 10 12 0 27 5 33 11 6 6 17 12 24 13 28
6 75 19 116 32 64 20 187 54 283 76 47 11 103 24 125 29 124 29 327 65 450 80
44 6 112 14 150 19 39 5 130 13 204 19 73 5 136 13 140 16 9 10 800 -3 916
-14z m-9635 -1851 c0 -6 -16 -72 -35 -148 -342 -1357 -362 -2861 -56 -4267 37
-168 123 -506 169 -660 52 -172 63 -206 112 -350 454 -1330 1221 -2577 2189
-3558 504 -511 1061 -967 1606 -1316 183 -117 317 -201 320 -201 2 0 59 -32
127 -72 67 -39 141 -81 163 -93 90 -48 145 -75 149 -73 2 2 12 -4 22 -13 19
-16 87 -49 101 -50 5 0 15 -6 23 -13 15 -12 37 -23 210 -104 654 -303 1351
-536 2040 -682 80 -16 165 -34 190 -40 25 -5 126 -23 225 -39 155 -25 224 -35
390 -57 17 -2 55 -6 85 -9 30 -3 89 -10 130 -15 41 -5 113 -12 159 -15 47 -3
86 -7 89 -9 2 -3 -13 -8 -34 -11 -22 -4 -70 -13 -109 -20 -171 -33 -533 -79
-755 -96 -425 -31 -1082 -36 -1390 -9 -371 33 -487 46 -780 90 -533 80 -1177
244 -1675 425 -55 20 -113 41 -130 47 -16 5 -39 13 -50 18 -11 4 -47 18 -80
30 -33 12 -79 31 -102 41 -24 11 -45 19 -48 19 -2 0 -33 13 -67 29 -35 15 -74
32 -88 36 -14 4 -76 32 -139 61 -62 30 -115 54 -118 54 -2 0 -81 39 -176 87
-95 47 -194 97 -222 111 -27 13 -90 48 -140 76 -49 29 -126 72 -170 96 -72 39
-209 123 -305 185 -19 12 -80 51 -135 86 -107 68 -131 85 -283 193 -777 552
-1487 1246 -2065 2019 -954 1272 -1559 2783 -1761 4392 -60 477 -85 1007 -67
1414 31 701 98 1212 242 1831 61 266 75 310 98 310 9 0 21 4 27 9 5 5 47 16
94 26 47 9 103 22 125 27 22 5 61 13 88 19 26 5 70 14 97 19 104 21 156 30
195 35 22 3 49 8 60 11 11 4 45 10 75 14 30 5 87 13 125 20 172 27 226 34 500
60 55 5 176 14 269 19 93 6 171 13 174 16 10 10 312 5 312 -5z m650 -5 c36 -2
101 -7 145 -10 188 -12 495 -46 675 -75 36 -6 81 -13 100 -16 19 -2 58 -9 85
-14 28 -5 79 -14 115 -20 36 -6 83 -15 105 -20 22 -5 67 -14 100 -20 139 -28
197 -44 202 -56 3 -7 -9 -62 -25 -121 -54 -193 -161 -731 -187 -943 -3 -19
-12 -91 -20 -160 -9 -69 -18 -136 -20 -150 -2 -14 -9 -86 -15 -160 -6 -74 -15
-182 -21 -240 -16 -175 -22 -813 -10 -1065 18 -366 29 -478 81 -882 57 -441
166 -927 333 -1493 27 -90 144 -430 195 -565 278 -741 707 -1527 1201 -2205
107 -146 136 -183 285 -370 208 -260 349 -414 661 -725 521 -520 1029 -925
1657 -1323 472 -299 1141 -629 1688 -831 63 -24 149 -56 190 -72 41 -15 93
-33 115 -39 22 -5 47 -14 55 -20 20 -13 -34 -13 -132 -1 -40 6 -120 15 -178
21 -183 21 -442 61 -705 110 -57 11 -178 37 -315 70 -52 12 -113 27 -135 32
-22 5 -58 13 -80 19 -22 6 -53 13 -70 16 -16 3 -34 9 -40 13 -5 3 -37 13 -70
20 -33 7 -64 17 -70 22 -5 4 -17 8 -26 8 -28 0 -458 140 -654 213 -125 47
-152 57 -222 88 -24 11 -47 19 -53 19 -5 0 -24 8 -42 18 -18 10 -49 24 -68 31
-38 15 -168 71 -240 104 -25 12 -49 20 -54 19 -4 -2 -14 5 -22 15 -7 10 -14
14 -14 9 0 -5 -9 -1 -20 9 -11 10 -20 15 -20 12 0 -6 -344 166 -420 209 -19
11 -82 47 -140 79 -553 307 -1115 709 -1625 1164 -284 254 -731 721 -966 1011
-781 962 -1340 2000 -1694 3145 -237 766 -367 1526 -405 2365 -14 296 -12 480
5 790 36 654 104 1134 242 1715 25 105 47 201 50 215 12 53 12 53 228 46 110
-3 229 -8 265 -11z m17402 -105 c104 -437 143 -636 197 -1005 110 -760 118
-1687 21 -2415 -5 -36 -13 -99 -19 -141 -45 -338 -113 -683 -202 -1029 -263
-1019 -707 -2005 -1293 -2870 -111 -164 -341 -477 -428 -582 -35 -42 -85 -105
-113 -140 -27 -35 -64 -79 -81 -98 -17 -19 -71 -80 -120 -135 -49 -55 -105
-118 -124 -140 -60 -69 -491 -496 -589 -585 -52 -47 -99 -90 -105 -95 -28 -26
-211 -179 -307 -256 -273 -221 -689 -514 -934 -659 -49 -29 -102 -62 -117 -72
-15 -10 -30 -18 -33 -18 -3 0 -29 -15 -58 -33 -134 -85 -570 -312 -762 -397
-27 -12 -77 -35 -110 -50 -227 -105 -568 -238 -840 -327 -60 -20 -119 -39
-130 -44 -33 -12 -78 -26 -125 -39 -25 -7 -65 -19 -90 -27 -56 -19 -177 -52
-210 -59 -14 -3 -34 -8 -45 -11 -11 -4 -27 -8 -35 -9 -15 -3 -70 -18 -126 -35
-17 -5 -42 -9 -57 -9 -14 0 -28 -4 -31 -9 -3 -5 -23 -11 -43 -14 -38 -6 -79
-14 -183 -37 -69 -15 -129 -27 -200 -39 -30 -6 -82 -15 -115 -21 -237 -42
-768 -107 -795 -98 -7 2 16 14 51 26 176 60 321 115 614 232 100 40 107 43
177 74 58 27 109 48 118 51 5 1 172 82 310 149 135 67 448 235 565 305 835
498 1571 1099 2202 1796 173 191 189 208 243 275 25 30 47 57 50 60 20 18 223
279 311 400 906 1245 1468 2591 1713 4100 37 226 76 556 98 825 17 213 17
1124 0 1330 -32 383 -74 708 -132 1035 -32 177 -105 508 -139 630 -12 41 -21
78 -21 81 0 9 28 20 78 30 23 5 63 14 90 19 26 6 67 15 92 19 25 5 72 14 105
21 105 21 280 49 498 80 185 27 392 46 621 59 93 6 171 12 173 15 3 3 84 4
181 3 l177 -2 27 -115z m638 100 c251 -16 584 -51 760 -80 36 -6 81 -13 100
-16 19 -2 58 -8 85 -14 28 -5 79 -14 115 -20 36 -6 83 -15 105 -20 22 -5 67
-14 100 -20 105 -21 276 -61 341 -81 17 -5 38 -9 47 -9 9 0 17 -1 17 -3 0 -2
21 -86 46 -188 124 -501 208 -1038 256 -1634 16 -209 16 -1011 0 -1200 -37
-417 -38 -435 -78 -710 -95 -669 -260 -1311 -500 -1950 -312 -833 -740 -1612
-1265 -2300 -210 -276 -286 -368 -503 -610 -357 -398 -853 -862 -1197 -1121
-40 -30 -83 -63 -94 -72 -11 -9 -38 -30 -60 -47 -22 -16 -41 -33 -43 -37 -2
-4 -8 -8 -13 -8 -5 0 -35 -20 -66 -43 -314 -236 -911 -594 -1338 -802 -221
-107 -440 -207 -540 -245 -11 -4 -33 -13 -50 -20 -16 -7 -40 -17 -52 -21 -13
-5 -34 -13 -48 -19 -14 -5 -35 -14 -47 -19 -13 -4 -34 -13 -48 -19 -14 -5 -41
-15 -60 -22 -19 -7 -44 -16 -55 -21 -24 -11 -472 -158 -570 -187 -153 -46
-428 -117 -545 -141 -30 -6 -82 -18 -115 -25 -33 -8 -87 -19 -120 -26 -33 -6
-76 -15 -95 -20 -87 -22 -551 -89 -760 -111 -384 -39 -719 -52 -1140 -45 -201
3 -374 8 -385 10 -11 2 -65 7 -120 10 -94 7 -289 26 -470 46 -44 5 -123 16
-175 25 -52 9 -111 18 -130 20 -19 2 -46 8 -60 13 -14 4 -45 10 -70 11 -45 3
-57 7 -49 15 3 3 47 8 99 12 52 3 98 8 101 10 3 2 53 8 110 14 57 5 120 12
139 15 19 3 53 8 75 11 22 3 56 8 75 10 74 9 187 25 235 34 28 6 102 19 165
31 63 11 144 27 180 35 36 8 81 18 100 21 19 3 41 10 48 15 6 6 12 8 12 6 0
-3 19 -1 43 4 23 4 56 11 72 14 46 8 368 93 480 126 55 16 129 38 165 49 97
28 417 140 570 199 74 29 162 63 195 75 33 13 90 37 128 54 37 17 70 31 72 31
30 0 703 334 851 422 32 19 133 79 224 133 518 307 1083 732 1544 1160 312
289 531 519 793 831 207 248 278 338 429 549 536 746 910 1446 1221 2285 46
124 151 435 163 480 4 19 22 82 40 140 67 227 150 568 194 800 14 74 30 158
36 185 43 225 92 631 122 1000 17 210 17 1054 0 1265 -48 597 -126 1101 -247
1594 -19 77 -37 152 -41 165 l-7 23 174 -6 c96 -3 244 -10 329 -16z m-16220
-286 c52 -14 109 -29 125 -34 17 -4 64 -17 105 -29 42 -11 170 -52 285 -91
116 -38 218 -72 227 -74 9 -3 27 -10 40 -17 13 -7 25 -12 28 -12 6 1 17 -3
160 -58 124 -47 272 -108 353 -143 40 -18 56 -30 51 -39 -4 -6 -30 -48 -58
-92 -114 -183 -225 -384 -331 -600 -637 -1296 -806 -2765 -480 -4183 186 -810
544 -1592 1048 -2287 307 -423 706 -841 1132 -1187 386 -312 825 -588 1261
-792 179 -83 368 -166 380 -166 3 0 20 -6 37 -14 18 -7 57 -23 87 -35 45 -18
83 -49 205 -168 178 -173 466 -438 579 -532 235 -195 570 -450 746 -568 54
-36 84 -61 71 -60 -11 1 -21 4 -21 7 0 3 -10 7 -22 8 -13 1 -86 24 -163 50
-77 27 -176 62 -220 77 -44 15 -156 59 -250 98 -93 38 -185 74 -202 81 -18 6
-33 14 -33 18 0 5 -6 8 -13 8 -8 0 -41 14 -75 30 -34 17 -64 30 -66 30 -2 0
-39 17 -83 37 -43 21 -82 36 -86 35 -4 -1 -10 5 -13 13 -4 8 -12 15 -18 15 -7
0 -36 11 -64 25 -29 14 -54 24 -56 23 -2 -2 -13 6 -25 16 -12 11 -21 15 -21
11 0 -4 -9 0 -20 10 -11 10 -20 14 -20 10 0 -4 -9 0 -20 10 -11 10 -20 14 -20
10 0 -4 -8 -1 -18 8 -10 10 -22 14 -25 11 -4 -4 -9 1 -13 10 -3 9 -12 16 -20
16 -12 0 -75 32 -99 50 -5 4 -45 26 -89 50 -280 150 -696 420 -1021 663 -1257
941 -2271 2217 -2902 3651 -347 789 -580 1610 -702 2471 -66 466 -85 755 -86
1275 0 444 7 582 51 985 47 441 138 951 233 1305 11 41 21 78 21 83 0 12 31 8
130 -19z m13412 -94 c133 -543 223 -1103 253 -1565 4 -55 9 -111 12 -125 12
-62 15 -838 4 -1030 -59 -1036 -258 -1961 -631 -2930 -182 -472 -506 -1114
-785 -1553 -110 -173 -325 -481 -444 -636 -69 -90 -135 -175 -146 -190 -23
-31 -157 -194 -165 -201 -3 -3 -32 -36 -65 -75 -214 -250 -569 -613 -801 -820
-238 -211 -228 -203 -464 -390 -181 -143 -242 -188 -465 -343 -165 -115 -423
-283 -515 -334 -25 -14 -74 -42 -110 -63 -442 -254 -823 -439 -1245 -604 -88
-35 -169 -67 -180 -71 -46 -20 -295 -105 -437 -150 -37 -12 -35 1 4 25 17 11
46 29 64 40 98 60 607 449 709 542 11 10 42 36 69 57 87 70 276 246 481 447
110 108 211 199 225 203 14 4 44 16 67 27 24 10 49 19 57 19 8 0 17 4 20 9 3
5 18 12 33 16 15 3 45 15 68 24 22 10 85 38 140 61 358 155 944 497 1210 708
6 4 26 19 45 32 193 135 614 517 841 765 293 319 572 699 790 1075 441 757
716 1574 814 2410 37 322 39 364 39 755 0 404 -4 481 -45 815 -108 871 -410
1724 -887 2499 -51 84 -90 157 -85 161 11 12 291 130 307 130 6 0 17 5 22 10
6 6 21 13 34 15 13 2 27 10 31 16 4 6 11 9 17 5 6 -3 13 -2 17 4 3 5 15 10 25
10 11 0 25 6 32 13 7 8 20 12 28 10 9 -3 22 2 29 10 6 8 20 13 30 10 9 -2 23
2 30 11 7 8 18 13 26 10 7 -3 16 -1 20 5 3 6 16 11 29 11 12 0 27 5 32 10 6 6
21 13 34 15 13 2 26 8 29 13 3 4 16 7 29 6 12 -1 25 3 28 7 3 5 16 9 29 9 13
0 27 5 30 10 3 6 17 10 30 10 13 0 27 5 30 10 3 6 15 10 26 10 10 0 27 4 37 9
9 5 51 19 92 30 41 12 89 26 106 31 17 6 38 10 47 10 10 0 25 4 35 9 9 5 37
14 62 21 25 6 56 15 70 20 14 5 36 8 49 7 22 -2 27 -11 53 -117z m-8387 -9940
c134 -34 391 -91 445 -97 33 -4 41 -14 135 -156 109 -164 382 -534 488 -661
36 -44 64 -82 62 -84 -2 -3 -21 8 -42 24 -21 16 -70 50 -109 76 -89 58 -328
236 -453 337 -51 42 -110 90 -131 106 -35 28 -141 118 -166 140 -6 6 -40 35
-75 65 -35 30 -98 87 -139 125 -42 39 -97 89 -123 113 -26 23 -47 44 -47 47 0
5 7 3 155 -35z m3273 -49 c-177 -165 -474 -421 -597 -514 -38 -29 -131 -99
-207 -157 -119 -90 -341 -250 -381 -274 -22 -12 -15 1 25 47 68 81 101 123
203 263 56 77 125 171 154 210 29 38 97 135 151 215 53 79 101 146 105 149 5
3 37 11 71 18 148 30 182 38 358 82 102 25 189 45 193 42 4 -2 -29 -39 -75
-81z m-2441 -110 c45 -3 84 -8 86 -11 3 -3 43 -97 90 -210 47 -113 106 -250
131 -304 26 -55 45 -101 43 -103 -3 -2 -34 36 -70 84 -36 48 -84 111 -105 138
-64 83 -206 276 -250 342 -46 67 -53 90 -24 78 9 -4 54 -11 99 -14z m1614 -63
c-111 -160 -167 -237 -293 -401 -126 -165 -158 -204 -146 -182 43 80 202 443
248 568 25 67 41 76 128 78 31 1 68 4 82 8 14 4 27 7 28 5 2 -1 -19 -35 -47
-76z m-1210 22 l37 0 12 -82 c13 -92 65 -403 76 -458 4 -19 5 -33 2 -30 -8 8
-151 324 -203 447 -25 62 -44 117 -40 123 4 7 22 9 44 6 20 -3 52 -5 72 -6z
m859 3 c0 -13 -102 -246 -197 -453 -62 -134 -64 -137 -58 -115 19 82 84 486
85 527 0 32 25 43 98 44 40 0 72 -1 72 -3z m-335 -51 c-31 -225 -122 -701
-152 -797 -7 -22 -23 43 -74 290 -41 203 -98 538 -93 547 3 4 77 7 165 7 l161
-1 -7 -46z"/>
<path d="M15045 20993 c-52 -4 -173 -20 -255 -33 -36 -6 -92 -15 -125 -20
-208 -33 -347 -61 -500 -101 -44 -11 -96 -24 -115 -29 -19 -4 -42 -10 -50 -13
-8 -4 -26 -8 -40 -11 -14 -2 -61 -16 -105 -30 -44 -14 -87 -26 -97 -26 -9 0
-20 -4 -23 -10 -3 -5 -15 -10 -25 -10 -10 0 -25 -7 -33 -15 -8 -8 -17 -12 -20
-9 -6 6 -123 -37 -292 -106 -139 -58 -166 -70 -346 -160 -502 -252 -903 -542
-1309 -950 -140 -141 -205 -213 -362 -398 -122 -146 -425 -597 -416 -622 2 -6
75 61 163 148 88 87 187 182 220 211 75 67 286 226 328 248 18 9 37 23 44 32
7 9 13 12 13 8 0 -5 13 1 29 12 16 12 34 21 40 21 6 0 11 5 11 10 0 6 9 10 20
10 11 0 20 3 20 8 0 6 113 63 165 82 11 4 31 12 45 18 14 6 43 16 65 23 22 6
49 15 60 20 21 8 46 13 150 29 233 37 392 83 615 178 222 94 561 281 799 441
29 20 64 43 76 51 94 62 135 93 135 101 0 5 5 9 10 9 30 0 -136 -225 -255
-344 -230 -232 -445 -353 -995 -561 -107 -40 -229 -88 -270 -105 -41 -18 -96
-40 -121 -50 -125 -51 -477 -238 -599 -320 -30 -20 -122 -81 -205 -135 -550
-362 -953 -774 -1100 -1124 -33 -78 -59 -170 -51 -178 2 -2 18 22 35 54 81
152 311 398 532 569 180 140 597 404 637 404 7 0 12 5 12 10 0 6 9 10 20 10
11 0 20 5 20 10 0 6 7 10 15 10 17 0 56 20 66 34 4 5 11 6 17 2 5 -3 15 1 22
9 7 8 19 15 26 15 8 0 14 5 14 10 0 6 6 10 13 10 7 0 39 13 72 30 33 16 66 30
73 30 14 0 54 21 63 33 3 5 9 8 13 7 7 -2 47 12 101 35 63 28 191 77 206 80 9
2 25 8 35 14 21 12 351 123 374 126 32 4 251 79 370 127 558 226 1022 569
1465 1083 115 134 211 267 370 515 63 98 235 435 235 460 0 21 -5 22 -105 13z"/>
<path d="M15361 20978 c-98 -254 -295 -635 -460 -888 -63 -98 -292 -415 -310
-430 -3 -3 -46 -52 -96 -110 -178 -208 -471 -478 -671 -620 -114 -80 -233
-160 -239 -160 -4 0 -19 -8 -33 -19 -54 -38 -241 -141 -355 -195 -256 -122
-358 -164 -452 -186 -55 -13 -104 -27 -109 -32 -6 -4 -19 -8 -30 -8 -11 0 -45
-8 -75 -19 -31 -10 -90 -29 -131 -41 -104 -31 -251 -79 -275 -89 -11 -5 -31
-13 -45 -19 -14 -6 -47 -18 -75 -27 -27 -9 -63 -22 -80 -29 -99 -43 -213 -89
-232 -93 -13 -3 -23 -9 -23 -14 0 -5 -7 -9 -15 -9 -25 0 -340 -158 -473 -237
-180 -108 -350 -225 -437 -302 -22 -20 -69 -61 -104 -91 -209 -180 -419 -485
-491 -715 -34 -112 -66 -325 -45 -303 3 3 17 45 31 94 14 48 38 116 54 150 87
193 266 376 515 526 61 37 319 168 330 168 4 0 31 11 61 25 30 14 60 25 67 25
7 0 17 4 23 9 11 10 102 44 327 121 92 31 170 60 174 63 3 4 17 7 29 7 13 0
25 4 29 9 3 6 13 10 23 9 17 0 72 17 104 33 10 5 26 9 36 9 10 0 22 3 26 7 4
4 19 9 34 11 15 2 29 7 30 13 2 5 17 9 32 9 16 0 32 5 35 10 3 6 15 10 26 10
10 0 27 4 37 9 9 5 91 32 182 61 91 29 173 56 182 61 10 5 27 9 37 9 11 0 23
5 26 10 3 6 17 10 30 10 13 0 27 5 30 10 3 6 16 10 29 10 12 0 26 4 32 8 5 5
29 14 54 21 25 6 54 16 65 21 11 5 70 25 130 46 61 20 124 42 140 49 55 24
170 67 185 70 8 2 30 11 48 20 18 9 38 18 45 19 7 1 19 6 27 11 8 5 20 10 25
11 6 1 27 9 47 18 21 9 41 17 45 17 5 1 17 6 28 12 11 6 25 10 31 9 7 -1 14 4
17 13 4 8 13 12 22 9 8 -3 15 -1 15 5 0 6 6 11 14 11 19 0 300 140 304 151 2
5 10 9 18 9 8 0 20 4 27 10 7 5 57 39 112 76 106 71 151 106 280 217 324 281
614 707 794 1167 29 74 57 146 62 159 24 59 99 338 122 451 60 299 79 535 46
556 -5 3 -13 -5 -18 -18z"/>
<path d="M15877 20983 c-3 -5 15 -38 40 -74 153 -216 244 -570 229 -884 -4
-66 -9 -172 -11 -235 -36 -873 -236 -1651 -580 -2255 -239 -421 -513 -733
-960 -1095 -157 -127 -329 -267 -360 -292 -11 -10 -67 -54 -125 -99 -231 -182
-355 -291 -563 -496 -205 -202 -267 -270 -428 -467 -384 -469 -655 -1049 -749
-1599 -60 -355 -58 -771 6 -1117 112 -606 247 -1052 439 -1445 224 -459 515
-802 814 -959 74 -38 173 -78 180 -71 2 2 -28 34 -66 72 -127 126 -256 327
-379 593 -133 287 -166 432 -165 715 1 302 44 516 166 835 136 352 361 692
629 953 76 74 197 176 241 205 11 6 40 26 65 43 58 39 311 163 375 184 28 9
59 20 70 24 47 20 159 56 228 72 20 5 56 14 80 19 23 6 56 13 72 15 17 3 46
10 65 15 19 5 55 12 80 15 25 4 72 11 105 15 33 5 104 14 158 19 54 6 103 14
110 18 6 4 253 8 547 8 536 2 586 4 670 31 48 15 177 92 226 134 88 76 142
203 165 392 10 88 10 134 0 258 -7 82 -10 165 -7 183 13 71 110 176 208 226
37 19 41 36 23 99 -22 74 -95 145 -209 201 -46 22 -88 41 -95 41 -22 0 -10 20
17 26 81 20 220 151 271 256 40 82 49 144 26 189 -9 19 -70 86 -135 149 -96
94 -119 122 -125 152 -14 75 61 154 222 234 50 25 117 61 148 80 32 19 59 34
61 34 15 0 110 74 156 122 80 83 95 133 72 241 -18 82 -55 155 -115 223 -18
21 -179 185 -356 364 -177 179 -336 343 -354 365 -94 118 -155 359 -184 723
-9 107 -17 395 -20 695 -5 385 -10 536 -21 610 -40 256 -174 552 -381 841 -35
48 -62 90 -60 93 6 6 114 -49 182 -93 89 -56 221 -172 355 -311 146 -151 190
-206 260 -328 167 -290 270 -571 300 -817 31 -262 -71 -512 -248 -606 -33 -18
-67 -32 -76 -32 -9 0 -16 -7 -16 -16 0 -13 8 -15 48 -11 64 7 113 17 137 26
11 5 38 14 60 21 92 29 209 96 277 159 88 82 140 159 175 258 23 68 27 93 27
198 -1 239 -73 418 -272 670 -229 289 -615 622 -1084 937 -31 21 -59 42 -62
47 -6 10 42 0 87 -18 15 -6 31 -10 35 -9 7 2 46 -11 187 -65 106 -40 318 -146
430 -214 245 -151 481 -364 716 -643 117 -140 257 -336 521 -731 404 -605 540
-781 803 -1044 157 -158 283 -267 450 -391 270 -201 340 -258 461 -379 72 -71
165 -176 207 -232 144 -195 254 -420 297 -608 11 -49 36 -157 55 -240 104
-442 163 -780 202 -1140 25 -235 25 -850 0 -1065 -57 -483 -176 -899 -368
-1281 -140 -281 -310 -519 -533 -748 -150 -153 -343 -316 -444 -376 -10 -5
-48 -30 -86 -53 -37 -24 -102 -61 -142 -82 -41 -21 -70 -41 -64 -45 9 -6 74
13 135 40 17 7 46 20 65 28 324 142 585 322 851 587 509 508 828 1184 963
2040 51 327 61 470 60 920 0 528 -18 755 -95 1220 -95 569 -272 1124 -524
1635 -120 244 -194 374 -323 564 -272 402 -539 700 -847 945 -55 44 -161 138
-235 211 -251 245 -553 475 -884 675 -184 110 -623 330 -660 330 -8 0 -18 5
-21 11 -4 5 -12 8 -18 6 -7 -2 -18 3 -26 10 -7 8 -19 12 -27 9 -7 -3 -18 2
-24 10 -7 8 -23 14 -36 14 -13 0 -24 4 -24 9 0 5 -15 12 -32 16 -37 9 -33 7
-113 35 -298 104 -759 206 -1065 235 -41 4 -77 8 -80 10 -14 8 -428 16 -433 8z"/>
<path d="M15657 20934 c-3 -4 -4 -41 0 -83 10 -134 -22 -461 -67 -689 -107
-538 -361 -1120 -730 -1668 -107 -160 -293 -406 -391 -519 -214 -247 -395
-429 -569 -574 -96 -81 -224 -175 -534 -395 -45 -33 -428 -336 -436 -345 -3
-4 -17 -16 -32 -27 -36 -28 -183 -156 -308 -269 -210 -189 -588 -590 -730
-775 -19 -25 -38 -49 -43 -55 -126 -156 -281 -430 -376 -667 -140 -347 -201
-689 -201 -1128 -1 -521 100 -1026 315 -1585 120 -312 276 -635 434 -900 59
-99 -259 243 -400 430 -374 495 -588 1005 -666 1585 -13 103 -18 201 -18 410
0 259 4 315 36 535 91 625 385 1346 721 1772 204 259 468 531 928 957 49 46
264 235 330 290 14 11 54 46 90 76 35 30 74 62 85 72 11 9 56 47 101 85 44 37
158 129 253 203 382 300 406 320 382 320 -5 0 -13 -4 -16 -10 -3 -5 -16 -10
-28 -10 -21 0 -72 -16 -132 -41 -16 -7 -32 -13 -35 -14 -17 -6 -53 -21 -107
-47 -35 -16 -66 -29 -70 -29 -5 0 -15 -7 -24 -15 -9 -8 -18 -12 -21 -9 -3 3
-11 -1 -18 -10 -7 -8 -16 -15 -20 -15 -10 0 -226 -121 -309 -173 -335 -212
-793 -544 -1086 -787 -557 -463 -990 -1022 -1214 -1567 -63 -152 -126 -353
-152 -479 -40 -199 -59 -687 -39 -982 51 -738 221 -1333 542 -1890 377 -655
992 -1230 1658 -1548 74 -36 143 -69 152 -74 21 -12 48 -13 48 -2 0 4 -34 46
-76 92 -309 344 -543 782 -703 1315 -145 484 -221 1081 -192 1510 18 278 51
490 112 725 156 606 473 1192 940 1735 138 160 475 498 600 600 20 17 115 94
210 172 301 245 643 608 908 966 562 759 888 1539 981 2352 37 317 25 777 -25
1015 -28 135 -44 178 -58 164z"/>
<path d="M12400 17570 c-134 -21 -188 -32 -220 -42 -19 -6 -42 -12 -50 -13
-27 -3 -215 -69 -221 -78 -3 -5 -8 -8 -10 -6 -3 2 -41 -8 -59 -15 -3 -2 -18
-8 -35 -15 -16 -7 -54 -23 -82 -37 -29 -13 -55 -23 -57 -22 -2 2 -13 -6 -25
-16 -12 -11 -21 -15 -21 -11 0 4 -9 0 -20 -10 -11 -10 -20 -15 -20 -10 0 4 -6
2 -14 -4 -8 -7 -38 -24 -68 -40 -69 -36 -247 -143 -323 -194 -61 -42 -346
-255 -355 -266 -3 -4 -18 -16 -33 -28 -63 -48 -188 -164 -290 -267 -215 -218
-319 -419 -399 -776 -30 -137 -35 -163 -62 -325 -81 -496 -76 -998 15 -1455
55 -276 169 -589 295 -808 40 -70 94 -145 94 -131 0 3 -14 45 -30 95 -72 209
-124 460 -152 724 -25 250 -14 662 27 940 8 52 19 176 25 275 6 99 20 225 31
280 26 127 94 333 151 455 291 623 995 1260 1918 1738 58 29 109 58 115 63 10
10 -57 10 -125 -1z"/>
<path d="M13748 12488 c-201 -300 -312 -613 -336 -943 -33 -441 116 -869 438
-1264 221 -271 482 -457 810 -578 61 -22 83 -29 185 -54 201 -50 521 -72 725
-49 173 20 335 54 335 71 0 9 -16 16 -45 21 -53 8 -113 21 -195 43 -33 9 -64
18 -70 19 -5 2 -21 8 -35 13 -14 6 -30 8 -36 6 -7 -2 -15 0 -19 6 -3 6 -19 11
-35 11 -15 0 -30 5 -32 11 -2 6 -13 12 -23 13 -19 2 -39 9 -80 26 -11 5 -60
25 -110 45 -177 72 -408 201 -560 314 -393 291 -644 645 -770 1082 -35 122
-75 325 -75 384 l0 30 21 -40 c50 -94 235 -351 355 -495 419 -501 921 -883
1404 -1070 47 -19 90 -36 95 -40 6 -4 37 -15 70 -24 33 -10 87 -26 120 -36
121 -36 252 -63 417 -85 174 -23 540 -20 720 5 133 19 313 54 348 67 8 3 22 7
30 9 8 1 31 7 50 13 41 12 83 21 90 19 3 -1 15 4 28 11 13 7 31 14 40 16 44 9
258 92 400 156 23 10 49 19 57 19 8 0 15 5 15 10 0 6 6 10 13 10 18 0 67 24
67 33 0 4 7 7 16 7 9 0 28 8 42 19 15 10 56 33 92 51 178 89 525 316 755 495
87 67 354 286 385 316 9 8 38 34 65 58 91 80 196 184 191 188 -3 3 -30 -12
-61 -34 -123 -83 -315 -206 -405 -260 -52 -31 -106 -63 -120 -72 -127 -80
-524 -285 -725 -374 -170 -75 -351 -148 -410 -166 -22 -7 -50 -17 -62 -22 -13
-5 -33 -13 -45 -18 -13 -5 -36 -12 -51 -16 -15 -3 -26 -9 -23 -14 3 -4 -6 -6
-19 -3 -14 2 -31 -2 -40 -11 -9 -9 -22 -14 -30 -10 -9 3 -22 -1 -31 -8 -8 -7
-27 -14 -42 -15 -15 -2 -28 -8 -30 -13 -2 -5 -10 -7 -18 -4 -9 3 -25 1 -37 -5
-19 -9 -53 -17 -212 -54 -86 -20 -132 -29 -185 -39 -30 -5 -80 -13 -110 -19
-282 -49 -763 -49 -1030 0 -30 6 -74 13 -98 16 -23 4 -45 11 -48 15 -3 5 -17
9 -32 9 -28 1 -156 41 -169 53 -3 4 -17 7 -29 7 -13 0 -26 5 -29 10 -3 6 -15
10 -26 10 -11 0 -50 14 -87 31 -134 62 -197 94 -200 101 -2 5 -10 8 -18 8 -8
0 -24 9 -36 20 -12 10 -24 17 -28 15 -4 -3 -13 2 -20 10 -7 8 -16 15 -21 15
-13 0 -225 155 -299 218 -429 368 -771 918 -1020 1642 -24 69 -46 129 -50 133
-4 4 -32 -29 -62 -75z"/>
</g>
</svg>
